<?xml version="1.0"?>

<svg version="1.1" id="Layer_1" xmlns="http://www.w3.org/2000/svg" xmlns:xlink="http://www.w3.org/1999/xlink" x="0px" y="0px" viewBox="0 0 688.4 213.6" style="enable-background:new 0 0 688.4 213.6;" xml:space="preserve">
<g>
&#x9;<path d="M654.4,11.4L603.5,42l42.9,54.7L688.4,42L654.4,11.4z M671.4,47.7l-22.1,28.7l6.3-50.4l17.6,15.9h-17.8l-0.7,5.9H671.4z&#xA;&#x9;&#x9; M623.3,41.8L649.6,26l-6.3,50.6l-22.6-28.8h24.4l0.7-5.9H623.3z"></path>
&#x9;<path d="M646.3,184.1l8.9,11.4l0.1,0.1l0.1,0.1l4.3,5.3h-13.3h-13.3l4.3-5.3l0.1-0.1l0.1-0.1L646.3,184.1 M646.3,167.7l-16.8,21.7&#xA;&#x9;&#x9;l-17.4,21.7h34.2h34.2l-17.4-21.7L646.3,167.7L646.3,167.7z"></path>
&#x9;<g>
&#x9;&#x9;<path d="M658.1,132.1l29.7,38.1h-23.4l-18-23.1l-17.9,23.1h-23.8l30-38.1l-30-37.9l23.5-0.4l18.3,23.4l18.3-23.4l23.1,0.4&#xA;&#x9;&#x9;&#x9;L658.1,132.1z"></path>
&#x9;</g>
</g>
<g>
&#x9;<path d="M134.6,16.8v16.5v23.3v0.9l0,0c0.3,6.3,6,11.9,12.2,11.9c6.3,0,11.9-5.6,12.2-11.9l0,0v-1V33.3V16.8h14.2V57v0.5l0,0&#xA;&#x9;&#x9;c-0.3,14.5-12,26.3-26.5,26.3c-14.4,0-26.2-11.7-26.4-26.3l0,0V57V16.8H134.6z"></path>
&#x9;<path d="M233,16.8l23.8,65.3H242L237.2,69H214l-4.8,13.1h-14.8l23.8-65.3C218.2,16.8,233,16.8,233,16.8z M219,55.2h13.2l-6.6-18.1&#xA;&#x9;&#x9;L219,55.2z"></path>
&#x9;<path d="M324.1,16.8h10.6v65.3h-12.3l-29.2-38.5v38.5h-13.9V16.8h12.3l29.2,38.5V16.8H324.1z"></path>
&#x9;<path d="M372.7,16.8h23.9h15v14h-15h-4.8v51.3h-14.3V30.8h-4.8h-15v-14H372.7z"></path>
&#x9;<path d="M449.2,16.8v16.5v23.3v0.9l0,0c0.3,6.3,6,11.9,12.2,11.9c6.3,0,11.9-5.6,12.2-11.9l0,0v-1V33.3V16.8h14.2V57v0.5l0,0&#xA;&#x9;&#x9;c-0.3,14.5-12,26.3-26.5,26.3c-14.4,0-26.2-11.7-26.4-26.3l0,0V57V16.8H449.2z"></path>
&#x9;<path d="M525.5,16.8l21.8,31.6L569,16.8h11.4v23v42.4h-12.9h-1V44.6l-19.3,28l-19.3-28v37.5h-1H514V39.8v-23H525.5z"></path>
</g>
<g>
&#x9;<path d="M112.9,187.2h7.7c4.4,0,8.2,1.6,8.2,6.8c0,5-3.9,7.2-8.2,7.2h-2.3v6.5h-5.4V187.2z M120.3,196.9c2.1,0,3.1-1.1,3.1-2.9&#xA;&#x9;&#x9;c0-1.8-1.1-2.5-3.1-2.5h-2v5.4H120.3z"></path>
&#x9;<path d="M131.3,199.8c0-5.2,4-8.2,8.2-8.2c5,0,7.5,3.4,7.5,7.6c0,0.9-0.2,1.9-0.2,2.3h-10.1c0.5,1.8,1.9,2.5,4.2,2.5&#xA;&#x9;&#x9;c1.3,0,2.4-0.3,3.8-0.9l1.8,3.2c-1.9,1.2-4.3,1.8-6.3,1.8C135.2,208.1,131.3,205.1,131.3,199.8z M136.8,197.9h5.5&#xA;&#x9;&#x9;c-0.2-1.5-1-2.3-2.5-2.3C138.2,195.7,137.2,196.4,136.8,197.9z"></path>
&#x9;<path d="M151.9,192h4.4l0.4,3.3h0.1c1.5-2.6,3.8-3.7,6.1-3.7c1.4,0,2.1,0.3,3,0.6l-1.1,4.5c-0.9-0.3-1.6-0.4-2.7-0.4&#xA;&#x9;&#x9;c-1.8,0-3.7,0.9-4.9,3.6v7.8h-5.4L151.9,192L151.9,192z"></path>
&#x9;<path d="M169.6,192h4.4l0.4,1.4h0.1c1.2-1.1,2.8-1.8,4.4-1.8c3.8,0,6.2,3.1,6.2,8c0,5.4-3.3,8.5-6.7,8.5c-1.4,0-2.6-0.6-3.6-1.6&#xA;&#x9;&#x9;h-0.1l0.3,2.4v4.3h-5.4L169.6,192L169.6,192z M179.6,199.6c0-2.6-0.8-3.7-2.3-3.7c-0.9,0-1.5,0.3-2.3,1.1v5.8&#xA;&#x9;&#x9;c0.7,0.6,1.4,0.8,2.1,0.8C178.4,203.7,179.6,202.7,179.6,199.6z"></path>
&#x9;<path d="M192.4,201.2V190h-4.7v-4.2h10.1v15.6c0,1.8,1.3,2.3,2.4,2.3c0.7,0,1.4-0.1,2.3-0.4l1.2,4c-1.7,0.5-2.8,0.8-4.9,0.8&#xA;&#x9;&#x9;C194.6,208.1,192.4,205.3,192.4,201.2z"></path>
&#x9;<path d="M206.9,199.8c0-5.2,4-8.2,8.2-8.2c5,0,7.5,3.4,7.5,7.6c0,0.9-0.2,1.9-0.2,2.3h-10.1c0.5,1.8,1.9,2.5,4.2,2.5&#xA;&#x9;&#x9;c1.3,0,2.4-0.3,3.8-0.9l1.8,3.2c-1.9,1.2-4.3,1.8-6.3,1.8C210.8,208.1,206.9,205.1,206.9,199.8z M212.4,197.9h5.5&#xA;&#x9;&#x9;c-0.2-1.5-1-2.3-2.5-2.3C213.8,195.7,212.8,196.4,212.4,197.9z"></path>
&#x9;<path d="M230.3,199.5l-4.9-7.6h5.8l1.3,2.2c0.4,0.9,1.1,1.8,1.5,2.7h0.1c0.3-0.9,0.8-1.8,1.1-2.7l1-2.2h5.6l-5,8.2l5.3,7.6h-5.8&#xA;&#x9;&#x9;l-1.4-2.2c-0.5-0.9-1.2-1.8-1.7-2.7h-0.1c-0.4,0.9-0.9,1.8-1.3,2.7l-1.2,2.2H225L230.3,199.5z"></path>
&#x9;<path d="M251.4,196.2h-6V192h11.4v15.7h-5.4V196.2z M250.5,186.7c0-1.9,1.4-3.2,3.5-3.2s3.5,1.3,3.5,3.2s-1.4,3.1-3.5,3.1&#xA;&#x9;&#x9;S250.5,188.6,250.5,186.7z"></path>
&#x9;<path d="M267.1,201v-4.8h-3.8v-4l4-0.2l0.7-4.7h4.5v4.7h6.2v4.2h-6.2v4.8c0,2.2,1,2.9,3.1,2.9c1.1,0,2-0.2,2.9-0.5l0.9,3.9&#xA;&#x9;&#x9;c-1.4,0.4-3.1,0.8-5.2,0.8C269,208.1,267.1,205.2,267.1,201z"></path>
&#x9;<path d="M283,213.3l0.9-4.1c0.4,0.1,0.8,0.2,1.1,0.2c1.7,0,2.5-0.6,2.9-1.6l0.3-0.7l-6.6-15.2h5.4l2.2,6c0.5,1.5,1,3.1,1.4,4.8h0.1&#xA;&#x9;&#x9;c0.4-1.6,0.9-3.2,1.4-4.8l1.9-6h5.1l-5.9,15.5c-1.7,4.3-3.5,6.2-7.7,6.2C284.6,213.6,283.7,213.5,283,213.3z"></path>
&#x9;<path d="M327,196.2h-6V192h11.4v15.7H327V196.2z M326.1,186.7c0-1.9,1.4-3.2,3.5-3.2c2,0,3.5,1.3,3.5,3.2s-1.4,3.1-3.5,3.1&#xA;&#x9;&#x9;S326.1,188.6,326.1,186.7z"></path>
&#x9;<path d="M339.6,192h4.4l0.4,1.9h0.1c1.3-1.2,3-2.3,5.3-2.3c3.5,0,5,2.5,5,6.4v9.7h-5.4v-9c0-1.8-0.4-2.5-1.8-2.5&#xA;&#x9;&#x9;c-1,0-1.7,0.4-2.5,1.2v10.3h-5.4V192H339.6z"></path>
&#x9;<path d="M377.4,187.2h7.7c4.4,0,8.2,1.6,8.2,6.8c0,5-3.9,7.2-8.2,7.2h-2.3v6.5h-5.4L377.4,187.2L377.4,187.2z M384.8,196.9&#xA;&#x9;&#x9;c2.1,0,3.1-1.1,3.1-2.9c0-1.8-1.1-2.5-3.1-2.5h-2v5.4H384.8z"></path>
&#x9;<path d="M400.2,201.2V190h-4.7v-4.2h10.1v15.6c0,1.8,1.3,2.3,2.4,2.3c0.7,0,1.4-0.1,2.3-0.4l1.2,4c-1.7,0.5-2.8,0.8-4.9,0.8&#xA;&#x9;&#x9;C402.4,208.1,400.2,205.3,400.2,201.2z"></path>
&#x9;<path d="M414.9,203.2c0-3.5,2.8-5.4,9.9-5.7c-0.2-1.1-1.3-1.6-3-1.6c-1.3,0-2.6,0.4-4.5,1.3l-1.9-3.5c2.4-1.3,4.8-2.1,7.5-2.1&#xA;&#x9;&#x9;c4.5,0,7.4,2.2,7.4,7.4v8.8h-4.4l-0.4-1.6h-0.1c-1.5,1.1-3.4,2-5.4,2C416.7,208.1,414.9,205.8,414.9,203.2z M424.8,202.7v-2&#xA;&#x9;&#x9;c-3.8,0.1-4.8,1-4.8,2.1c0,0.7,0.6,1.1,1.7,1.1C423,203.9,424,203.4,424.8,202.7z"></path>
&#x9;<path d="M440.4,196.2h-6V192h11.4v15.7h-5.4V196.2z M439.4,186.7c0-1.9,1.4-3.2,3.5-3.2c2,0,3.5,1.3,3.5,3.2s-1.4,3.1-3.5,3.1&#xA;&#x9;&#x9;C440.9,189.8,439.4,188.6,439.4,186.7z"></path>
&#x9;<path d="M453,192h4.4l0.4,1.9h0.1c1.3-1.2,3-2.3,5.3-2.3c3.5,0,5,2.5,5,6.4v9.7h-5.4v-9c0-1.8-0.4-2.5-1.8-2.5&#xA;&#x9;&#x9;c-1,0-1.7,0.4-2.5,1.2v10.3H453V192z"></path>
&#x9;<path d="M488.8,187.2h5.5l0.3,10.1v5.3h0.1c0.3-1.8,0.7-3.6,1-5.3l1.1-5h3.1l1,5c0.3,1.7,0.7,3.5,1,5.3h0.1v-5.3l0.3-10.1h5.2&#xA;&#x9;&#x9;l-2.4,20.5h-5.6l-0.9-5.6c-0.2-1.3-0.4-2.8-0.5-4H498c-0.1,1.2-0.3,2.7-0.5,4l-0.9,5.6h-5.5L488.8,187.2z"></path>
&#x9;<path d="M508.9,199.8c0-5.2,4-8.2,8.1-8.2s8.1,3,8.1,8.2s-4,8.2-8.1,8.2S508.9,205.1,508.9,199.8z M519.6,199.8&#xA;&#x9;&#x9;c0-2.4-0.8-3.9-2.6-3.9s-2.6,1.5-2.6,3.9s0.8,3.9,2.6,3.9C518.9,203.7,519.6,202.2,519.6,199.8z"></path>
&#x9;<path d="M529.8,192h4.4l0.4,3.3h0.1c1.5-2.6,3.8-3.7,6.1-3.7c1.4,0,2.1,0.3,3,0.6l-1.1,4.5c-0.9-0.3-1.6-0.4-2.7-0.4&#xA;&#x9;&#x9;c-1.8,0-3.7,0.9-4.9,3.6v7.8h-5.4V192H529.8z"></path>
&#x9;<path d="M546.7,199.8c0-5.2,3.3-8.2,6.6-8.2c1.7,0,2.7,0.6,3.7,1.6h0.1l-0.3-2.3v-5.1h5.4v21.9h-4.4l-0.4-1.4h-0.1&#xA;&#x9;&#x9;c-1.1,1.1-2.6,1.8-4.1,1.8C549.3,208.1,546.7,204.9,546.7,199.8z M556.9,202.5v-5.8c-0.6-0.6-1.3-0.8-2.1-0.8c-1.3,0-2.5,1-2.5,3.8&#xA;&#x9;&#x9;s0.9,3.9,2.5,3.9C555.6,203.7,556.3,203.4,556.9,202.5z"></path>
&#x9;<path d="M565.7,205.7l2.3-3.3c2,1.2,4.2,1.8,6.2,1.8c1.4,0,2-0.4,2-0.9c0-0.8-0.8-0.9-3.5-1.4c-4.3-0.9-5.9-2.6-5.9-5&#xA;&#x9;&#x9;c0-3.1,2.9-5.1,7.5-5.1c3,0,5.3,1.2,7,2.2l-2.4,3.2c-1.6-0.9-3.5-1.4-5.1-1.4c-1,0-1.6,0.3-1.6,0.9c0,0.7,0.8,0.8,3.3,1.3&#xA;&#x9;&#x9;c4.7,1.1,6.1,2.5,6.1,5.1c0,3-2.8,5.2-8.1,5.2C570.7,208.1,567.8,207,565.7,205.7z"></path>
</g>
<g>
&#x9;<path d="M232.2,101.3l-6.2,13.3c-0.7-0.4-1.4-0.8-2.4-1.3c-2.7-1.3-6.2-2.7-9.8-2.2c-1.8,0.3-3.5,1-4.8,2.2s-2.1,3-2.1,4.9&#xA;&#x9;&#x9;c0,1.3,0.8,2.5,1.6,3.2s1.7,1.1,2.6,1.4c1.8,0.6,3.7,1,5.2,1.5l0,0c3.7,1.1,7.9,2.2,12.1,5c3.9,2.6,7.9,8.8,7.9,14.9&#xA;&#x9;&#x9;c0,12.9-10.6,22-21.9,22c-4.9,0-12.6-0.3-21.6-4.7l7.2-13c1,0.6,2.2,1.2,3.7,1.8c3,1.2,6.9,2.2,11.1,1.1c2.2-0.6,3.9-1.6,5-3&#xA;&#x9;&#x9;s1.5-3.2,1.2-4.8c-0.2-1.1-0.9-2.1-1.7-2.7c-0.8-0.6-1.6-0.8-2.4-1.1c-1.6-0.5-3.3-0.8-5-1.3c-3.8-1.2-8-2.2-12.2-5.2&#xA;&#x9;&#x9;c-4-2.8-7.8-8.9-7.8-15.1c0-6.5,3.3-12.6,7.7-16c4.6-3.5,9.9-4.8,15.2-4.8C219.9,97.3,225.1,98.3,232.2,101.3z"></path>
&#x9;<path d="M260.9,99h13.9v65.3h-13.9V99z"></path>
&#x9;<path d="M313.2,99l21.8,31.6L356.7,99h11.4v23v42.4h-12.9h-1v-37.5l-19.3,28l-19.3-28v37.5h-1h-12.9V122V99H313.2z"></path>
&#x9;<path d="M446,125.1c0,14.4-10.1,26.1-24.4,26.1H409v2.8v10.4h-13.9V99h26.5C435.8,99,446,110.7,446,125.1z M409,136.7h11.2&#xA;&#x9;&#x9;c6.4-0.3,11.4-5.2,11.4-11.6s-5-11.6-11.4-11.6H409V136.7z"></path>
&#x9;<path d="M484.9,99v51.4h29.3v13.9h-29.7h-13.9v-13.9V99H484.9z"></path>
&#x9;<path d="M551.1,99h29.5v13.9h-29.5v12.3h28.4V138h-28.4v12.3h29.5v13.9h-29.5h-13.9V99H551.1z"></path>
</g>
<g>
&#x9;<path d="M93.2,34.9c3.6,13.5,1,27.3-6.2,38.1l11.8,11.8L85.1,98.6L73.2,86.7c-4.1,2.6-8.6,4.7-13.6,6.1c-25.3,6.8-51.3-8.2-58-33.3&#xA;&#x9;&#x9;C-5.1,34.3,9.9,8.4,35.2,1.6C60.4-5.1,86.4,9.8,93.2,34.9z M20.4,54.4c4,14.9,20.7,24.1,34.4,20.5c13.7-3.7,23.5-20,19.5-34.9&#xA;&#x9;&#x9;S53.6,15.9,40,19.5C26.3,23.2,16.4,39.5,20.4,54.4z"></path>
</g>
</svg>